<?xml version="1.0" encoding="UTF-8"?>
<svg version="1.1" xmlns="http://www.w3.org/2000/svg" width="1088" height="960">
<path d="M0 0 C359.04 0 718.08 0 1088 0 C1088 316.8 1088 633.6 1088 960 C728.96 960 369.92 960 0 960 C0 643.2 0 326.4 0 0 Z " fill="#FDFEFE" transform="translate(0,0)"/>
<path d="M0 0 C127.05 0 254.1 0 385 0 C385 115.5 385 231 385 350 C257.95 350 130.9 350 0 350 C0 234.5 0 119 0 0 Z " fill="#040404" transform="translate(345,305)"/>
<path d="M0 0 C22.11 0 44.22 0 67 0 C67 0.99 67 1.98 67 3 C57.43 3 47.86 3 38 3 C38 20.82 38 38.64 38 57 C14.57 57 -8.86 57 -33 57 C-33 39.18 -33 21.36 -33 3 C-43.56 3 -54.12 3 -65 3 C-65 49.53 -65 96.06 -65 144 C-54.44 144 -43.88 144 -33 144 C-33 125.52 -33 107.04 -33 88 C-9.57 88 13.86 88 38 88 C38 106.48 38 124.96 38 144 C47.57 144 57.14 144 67 144 C67 144.99 67 145.98 67 147 C44.89 147 22.78 147 0 147 C0 134.13 0 121.26 0 108 C-2.64 108 -5.28 108 -8 108 C-8 120.54 -8 133.08 -8 146 C-44.3 146 -80.6 146 -118 146 C-115.45894854 144.72947427 -112.92149088 143.48112716 -110.35546875 142.265625 C-95.15225695 134.96677412 -86.62191786 127.16186837 -80.04296875 111.15234375 C-77.59098491 103.74129147 -76.70018017 96.76894936 -76.68115234 88.98217773 C-76.66608391 87.5464315 -76.66608391 87.5464315 -76.65071106 86.0816803 C-76.62006371 82.94899034 -76.60289552 79.81638511 -76.5859375 76.68359375 C-76.567211 74.49926534 -76.54763649 72.31494406 -76.5272522 70.13063049 C-76.47608165 64.40477714 -76.43637542 58.67890037 -76.39910889 52.95294189 C-76.3519077 46.07029122 -76.29037479 39.18775536 -76.23126221 32.30519867 C-76.14323392 21.87017918 -76.07333768 11.43517964 -76 1 C-53.56 1 -31.12 1 -8 1 C-8 13.87 -8 26.74 -8 40 C-5.36 40 -2.72 40 0 40 C0 26.8 0 13.6 0 0 Z " fill="#FBFBFB" transform="translate(655,388)"/>
<path d="M0 0 C4.18756642 3.58934265 8.1387639 7.00106246 12 10.875 C12.78375 11.65617187 13.5675 12.43734375 14.375 13.2421875 C16.40463668 15.37451413 18.33543824 17.52884578 20.25390625 19.7578125 C24.27235146 24.38626837 28.58088573 28.69191699 32.9375 33 C33.71673828 33.77472656 34.49597656 34.54945313 35.29882812 35.34765625 C37.1969242 37.23410757 39.09733149 39.11816245 41 41 C45.17258919 39.36312397 47.96425073 36.30669032 51.05078125 33.1796875 C51.62781296 32.60219757 52.20484467 32.02470764 52.79936218 31.42971802 C54.01957662 30.20648633 55.23736351 28.98082895 56.45288086 27.75292969 C58.2904276 25.89728973 60.13568538 24.04961463 61.98242188 22.203125 C67.86494565 16.30250146 73.61193572 10.36133881 79 4 C81.3125 1.5 81.3125 1.5 83 0 C83.66 0 84.32 0 85 0 C85 31.35 85 62.7 85 95 C94.57 95 104.14 95 114 95 C114 95.99 114 96.98 114 98 C91.56 98 69.12 98 46 98 C46 85.13 46 72.26 46 59 C43.36 59 40.72 59 38 59 C38 71.87 38 84.74 38 98 C15.89 98 -6.22 98 -29 98 C-29 97.01 -29 96.02 -29 95 C-19.43 95 -9.86 95 0 95 C0 63.65 0 32.3 0 0 Z " fill="#F9F9F9" transform="translate(382,437)"/>
<path d="M0 0 C33.33 0 66.66 0 101 0 C101 13.2 101 26.4 101 40 C100.67 40 100.34 40 100 40 C100 27.13 100 14.26 100 1 C77.56 1 55.12 1 32 1 C32.03480469 7.93515625 32.06960938 14.8703125 32.10546875 22.015625 C32.12080966 26.42709183 32.13525244 30.83852546 32.14648438 35.25 C32.1643703 42.24160654 32.18545742 49.23309444 32.22631836 56.22460938 C32.25907765 61.86563156 32.27688785 67.50652639 32.28463173 73.14763641 C32.2901456 75.29245761 32.30091234 77.43727237 32.31719017 79.58203888 C32.45477326 98.47299117 30.73107748 116.88428339 16.93359375 131.265625 C9.81258006 137.65295849 2.87674032 140.96511804 -6 145 C46.47 145.495 46.47 145.495 100 146 C100 146.33 100 146.66 100 147 C54.79 147 9.58 147 -37 147 C-37 137.1 -37 127.2 -37 117 C-33.6278125 116.87625 -33.6278125 116.87625 -30.1875 116.75 C-21.37361633 116.22578619 -13.31350817 114.94494929 -7 108.25 C-1.50416202 101.70995281 -0.55419507 94.47972474 -0.56762695 86.27929688 C-0.55221627 84.85049572 -0.55221627 84.85049572 -0.53649426 83.3928299 C-0.50680174 80.33473721 -0.49709495 77.27696642 -0.48828125 74.21875 C-0.4728019 72.32062675 -0.45600267 70.42251379 -0.43786621 68.52441406 C-0.38010621 61.51638948 -0.34782438 54.50817359 -0.3125 47.5 C-0.209375 31.825 -0.10625 16.15 0 0 Z " fill="#0985DB" transform="translate(547,388)"/>
<path d="M0 0 C14.52 0 29.04 0 44 0 C44.16043524 23.55724068 44.16043524 23.55724068 44.1953125 33.63671875 C44.21917835 40.5012659 44.24734279 47.36559863 44.30175781 54.22998047 C44.34537556 59.76726245 44.36917087 65.30431432 44.37950897 70.84175491 C44.38687177 72.94917037 44.40124938 75.05657394 44.42292023 77.16389084 C44.45216578 80.12694788 44.45594717 83.08906682 44.45410156 86.05224609 C44.46848267 86.91396423 44.48286377 87.77568237 44.49768066 88.66351318 C44.44427168 96.64287452 42.20039808 103.77488698 36.9375 109.875 C28.09332386 117.7842738 18.77661221 117 7 117 C7 126.9 7 136.8 7 147 C4.69 147 2.38 147 0 147 C0 98.49 0 49.98 0 0 Z " fill="#FBFBFB" transform="translate(503,388)"/>
<path d="M0 0 C22.11 0 44.22 0 67 0 C67 22.44 67 44.88 67 68 C44.89 68 22.78 68 0 68 C0 45.56 0 23.12 0 0 Z " fill="#F9F9F9" transform="translate(655,542)"/>
<path d="M0 0 C22.44 0 44.88 0 68 0 C68 22.11 68 44.22 68 67 C45.56 67 23.12 67 0 67 C0 44.89 0 22.78 0 0 Z " fill="#FDFDFD" transform="translate(504,543)"/>
<path d="M0 0 C22.11 0 44.22 0 67 0 C67 22.44 67 44.88 67 68 C44.89 68 22.78 68 0 68 C0 45.56 0 23.12 0 0 Z " fill="#F9F9F9" transform="translate(655,313)"/>
<path d="M0 0 C22.44 0 44.88 0 68 0 C68 22.11 68 44.22 68 67 C45.56 67 23.12 67 0 67 C0 44.89 0 22.78 0 0 Z " fill="#FDFDFD" transform="translate(504,313)"/>
<path d="M0 0 C22.11 0 44.22 0 67 0 C67 22.11 67 44.22 67 67 C44.89 67 22.78 67 0 67 C0 44.89 0 22.78 0 0 Z " fill="#FEFEFE" transform="translate(580,543)"/>
<path d="M0 0 C22.11 0 44.22 0 67 0 C67 22.11 67 44.22 67 67 C44.89 67 22.78 67 0 67 C0 44.89 0 22.78 0 0 Z " fill="#FDFDFD" transform="translate(428,543)"/>
<path d="M0 0 C22.11 0 44.22 0 67 0 C67 22.11 67 44.22 67 67 C44.89 67 22.78 67 0 67 C0 44.89 0 22.78 0 0 Z " fill="#FDFDFD" transform="translate(353,543)"/>
<path d="M0 0 C22.11 0 44.22 0 67 0 C67 22.11 67 44.22 67 67 C44.89 67 22.78 67 0 67 C0 44.89 0 22.78 0 0 Z " fill="#FEFEFE" transform="translate(580,313)"/>
<path d="M0 0 C22.11 0 44.22 0 67 0 C67 22.11 67 44.22 67 67 C44.89 67 22.78 67 0 67 C0 44.89 0 22.78 0 0 Z " fill="#FDFDFD" transform="translate(428,313)"/>
<path d="M0 0 C22.11 0 44.22 0 67 0 C67 22.11 67 44.22 67 67 C44.89 67 22.78 67 0 67 C0 44.89 0 22.78 0 0 Z " fill="#FDFDFD" transform="translate(353,313)"/>
<path d="M0 0 C3.02090216 -0.02805791 6.04152328 -0.04731921 9.0625 -0.0625 C9.87138672 -0.07087891 10.68027344 -0.07925781 11.51367188 -0.08789062 C22.37842111 -0.12798195 33.10554482 0.52632804 44 1 C44 18.82 44 36.64 44 55 C66.77 55 89.54 55 113 55 C113 37.51 113 20.02 113 2 C113.33 2 113.66 2 114 2 C114 19.82 114 37.64 114 56 C90.57 56 67.14 56 43 56 C43 38.18 43 20.36 43 2 C32.44 2 21.88 2 11 2 C11 48.53 11 95.06 11 143 C21.56 143 32.12 143 43 143 C43 124.52 43 106.04 43 87 C66.43 87 89.86 87 114 87 C114 105.48 114 123.96 114 143 C113.67 143 113.34 143 113 143 C113 124.85 113 106.7 113 88 C90.23 88 67.46 88 44 88 C44 106.48 44 124.96 44 144 C17.56674436 145.14927198 17.56674436 145.14927198 4.97265625 145.09765625 C3.59305372 145.09577899 2.2134505 145.09436134 0.83384705 145.09336853 C-2.70535296 145.08964584 -6.24450839 145.07991067 -9.78369141 145.06866455 C-13.43196002 145.05822261 -17.08023621 145.05382343 -20.72851562 145.04882812 C-27.81902807 145.038273 -34.90951105 145.02132936 -42 145 C-39.46350344 143.7284183 -36.91969823 142.480278 -34.35546875 141.265625 C-19.15225695 133.96677412 -10.62191786 126.16186837 -4.04296875 110.15234375 C-1.59098491 102.74129147 -0.70018017 95.76894936 -0.68115234 87.98217773 C-0.66608391 86.5464315 -0.66608391 86.5464315 -0.65071106 85.0816803 C-0.62006371 81.94899034 -0.60289552 78.81638511 -0.5859375 75.68359375 C-0.567211 73.49926534 -0.54763649 71.31494406 -0.5272522 69.13063049 C-0.47608165 63.40477714 -0.43637542 57.67890037 -0.39910889 51.95294189 C-0.35897445 46.1007312 -0.30792529 40.24861663 -0.2578125 34.39648438 C-0.16123183 22.93105727 -0.07677019 11.46557568 0 0 Z " fill="#EDEFF0" transform="translate(579,389)"/>
<path d="M0 0 C22.77 0 45.54 0 69 0 C69 9.57 69 19.14 69 29 C46.23 29 23.46 29 0 29 C0 19.43 0 9.86 0 0 Z " fill="#F9F9F9" transform="translate(503,618)"/>
<path d="M0 0 C22.44 0 44.88 0 68 0 C68 9.57 68 19.14 68 29 C45.56 29 23.12 29 0 29 C0 19.43 0 9.86 0 0 Z " fill="#F9F9F9" transform="translate(428,618)"/>
<path d="M0 0 C22.11 0 44.22 0 67 0 C67 9.57 67 19.14 67 29 C44.89 29 22.78 29 0 29 C0 19.43 0 9.86 0 0 Z " fill="#F8F8F8" transform="translate(655,618)"/>
<path d="M0 0 C22.11 0 44.22 0 67 0 C67 9.57 67 19.14 67 29 C44.89 29 22.78 29 0 29 C0 19.43 0 9.86 0 0 Z " fill="#FBFBFB" transform="translate(580,618)"/>
<path d="M0 0 C22.11 0 44.22 0 67 0 C67 9.57 67 19.14 67 29 C44.89 29 22.78 29 0 29 C0 19.43 0 9.86 0 0 Z " fill="#FBFBFB" transform="translate(353,618)"/>
<path d="M0 0 C22.11 0 44.22 0 67 0 C67 0.99 67 1.98 67 3 C66.29271759 2.92784775 65.58543518 2.8556955 64.85671997 2.78135681 C54.15921771 1.89464522 43.11854644 1.05771304 34.13183594 7.73876953 C28.58528774 12.58854531 23.72946361 18.03481402 18.875 23.5625 C17.13402997 25.44281901 15.38665616 27.31722981 13.6328125 29.18554688 C9.83349847 33.24646588 6.10020937 37.35779247 2.41915894 41.52613831 C1.95083649 42.01251266 1.48251404 42.49888702 1 43 C0.67 43 0.34 43 0 43 C0 28.81 0 14.62 0 0 Z " fill="#F2F2F2" transform="translate(428,388)"/>
<path d="M0 0 C22.11 0 44.22 0 67 0 C67 14.19 67 28.38 67 43 C59.15305181 36.27404441 59.15305181 36.27404441 56.60449219 33.30541992 C56.03056229 32.64854187 55.45663239 31.99166382 54.86531067 31.31488037 C54.2652269 30.62702454 53.66514313 29.9391687 53.046875 29.23046875 C37.18163003 9.98578847 37.18163003 9.98578847 15.03808594 1.33520508 C9.92497865 1.48047169 4.99893585 1.89557668 0 3 C0 2.01 0 1.02 0 0 Z " fill="#F5F5F5" transform="translate(353,388)"/>
</svg>
