<?xml version="1.0" encoding="UTF-8"?>
<svg version="1.1" xmlns="http://www.w3.org/2000/svg" width="1200" height="1200">
<path d="M0 0 C396 0 792 0 1200 0 C1200 396 1200 792 1200 1200 C804 1200 408 1200 0 1200 C0 804 0 408 0 0 Z " fill="#F6DE1D" transform="translate(0,0)"/>
<path d="M0 0 C2.96163398 0.01072526 5.9226616 0.00004282 8.88427734 -0.01269531 C19.60242066 -0.02053525 29.87835961 0.46733254 40.46630859 2.26074219 C41.61848877 2.43331543 41.61848877 2.43331543 42.79394531 2.609375 C75.89387268 7.60653647 105.46840004 22.04643881 129.46630859 45.26074219 C130.40345703 46.14632812 131.34060547 47.03191406 132.30615234 47.94433594 C141.77872637 57.09805754 149.31284628 67.30743824 156.52880859 78.26074219 C157.24520508 79.33799561 157.24520508 79.33799561 157.97607422 80.43701172 C160.28129769 84.01010809 162.05140707 86.92544465 162.46630859 91.26074219 C161.02964844 92.15212891 161.02964844 92.15212891 159.56396484 93.06152344 C151.8152191 97.88046871 144.11046908 102.75920986 136.45874023 107.73071289 C129.98018371 111.93708634 123.47488774 116.10100659 116.96630859 120.26074219 C109.66245589 124.92960857 102.36540354 129.60813397 95.09130859 134.32324219 C93.75928507 135.1852333 92.42725419 136.04721304 91.09521484 136.90917969 C88.74553348 138.43018155 86.39974163 139.95693745 84.05615234 141.48730469 C83.05712891 142.13441406 82.05810547 142.78152344 81.02880859 143.44824219 C80.18447266 143.99867188 79.34013672 144.54910156 78.47021484 145.11621094 C76.46630859 146.26074219 76.46630859 146.26074219 74.46630859 146.26074219 C73.41887238 144.59339474 72.45624557 142.8727024 71.52880859 141.13574219 C60.33738487 121.46948515 45.04608149 107.05874163 22.97021484 100.73339844 C3.14919696 96.99183344 -16.78365398 98.20046025 -33.81884766 109.81933594 C-42.31838175 116.64844137 -48.61464871 127.02755772 -49.83325195 137.94433594 C-49.97106134 140.82804121 -50.00127451 143.6864576 -49.97119141 146.57324219 C-49.96361816 147.58926514 -49.95604492 148.60528809 -49.94824219 149.65209961 C-49.78424966 157.11974459 -48.91361306 163.51149424 -45.53369141 170.26074219 C-45.13279297 171.1128125 -44.73189453 171.96488281 -44.31884766 172.84277344 C-35.64146381 189.21661948 -17.67943609 197.52184959 -1.68017578 205.2265625 C0.48229898 206.26844638 2.63828824 207.32302061 4.79443359 208.37792969 C13.6991538 212.697398 22.71379044 216.68541992 31.84130859 220.51074219 C91.67359023 245.59570499 158.84288646 274.97362645 185.50537109 338.82666016 C190.9421207 352.59810161 193.7336359 366.60382681 195.46630859 381.26074219 C195.55984619 381.97456055 195.65338379 382.68837891 195.74975586 383.42382812 C200.64745076 422.72882156 191.71797473 464.58908158 167.46630859 496.26074219 C141.24289227 529.25453353 102.15421878 550.65858447 60.46630859 557.26074219 C59.69738281 557.38642578 58.92845703 557.51210937 58.13623047 557.64160156 C-6.31687434 568.11338747 -77.63575312 559.8134638 -131.89257812 521.17895508 C-140.09473997 515.18443978 -147.80366915 508.82272844 -155.05273438 501.70654297 C-156.52927951 500.26504935 -158.03037656 498.85365375 -159.53759766 497.44433594 C-172.54672392 485.09984775 -182.4737133 470.51125206 -191.46435547 455.07519531 C-192.38845268 453.50718378 -193.35931471 451.96690827 -194.33837891 450.43261719 C-195.53369141 448.26074219 -195.53369141 448.26074219 -195.53369141 445.26074219 C-193.74316406 443.87304688 -193.74316406 443.87304688 -191.19775391 442.43261719 C-190.24900391 441.88798828 -189.30025391 441.34335937 -188.32275391 440.78222656 C-187.27861328 440.19763672 -186.23447266 439.61304688 -185.15869141 439.01074219 C-183.54220703 438.08745117 -183.54220703 438.08745117 -181.89306641 437.14550781 C-179.60277275 435.83771311 -177.31071173 434.53377794 -175.01513672 433.23535156 C-169.50067438 430.11308826 -164.01997935 426.93214596 -158.53369141 423.76074219 C-156.36057645 422.50803023 -154.18739932 421.25542614 -152.01416016 420.00292969 C-145.61643154 416.31159914 -139.22813508 412.6042914 -132.84619141 408.88574219 C-131.85594971 408.30937012 -130.86570801 407.73299805 -129.84545898 407.13916016 C-125.47705459 404.5900348 -121.12203355 402.02457894 -116.80712891 399.38574219 C-115.75658325 398.74451416 -115.75658325 398.74451416 -114.68481445 398.09033203 C-113.42200631 397.31565898 -112.16272667 396.53518845 -110.90795898 395.74755859 C-108.19131636 394.07795111 -106.79363203 393.26074219 -103.53369141 393.26074219 C-101.8368235 395.52122341 -100.33458547 397.74342587 -98.84619141 400.13574219 C-94.74679813 406.49738493 -90.45545195 412.4977377 -85.53369141 418.26074219 C-84.82599609 419.09089844 -84.11830078 419.92105469 -83.38916016 420.77636719 C-63.56744253 443.40992217 -37.54935635 457.14264058 -7.53369141 460.26074219 C17.79324702 461.33092448 42.44272014 459.82231992 63.46630859 444.26074219 C64.19333984 443.72835938 64.92037109 443.19597656 65.66943359 442.64746094 C75.09695866 435.10903917 80.82358628 424.12004447 82.46630859 412.26074219 C83.39175234 396.56379254 80.6753959 383.29534872 70.90380859 370.69824219 C49.90493855 348.14983721 16.07400441 337.44263123 -11.71484375 325.64746094 C-49.53464047 309.5934449 -86.1940439 292.6116628 -116.53369141 264.26074219 C-117.42056641 263.43960937 -118.30744141 262.61847656 -119.22119141 261.77246094 C-147.55086587 234.6097759 -161.81395291 195.56479211 -162.73681641 156.76464844 C-163.12146386 122.7598656 -156.48316477 89.97212478 -135.53369141 62.26074219 C-134.87240234 61.37902344 -134.21111328 60.49730469 -133.52978516 59.58886719 C-119.89515788 42.2128781 -103.86048336 29.65536137 -84.53369141 19.26074219 C-83.56044922 18.72707031 -82.58720703 18.19339844 -81.58447266 17.64355469 C-69.96104557 11.5226231 -57.63789162 7.60395989 -44.90869141 4.51074219 C-44.09924072 4.312146 -43.28979004 4.1135498 -42.45581055 3.90893555 C-28.29472331 0.62889005 -14.46959219 -0.06223481 0 0 Z " fill="#000000" transform="translate(910.53369140625,544.7392578125)"/>
<path d="M0 0 C36.96 0 73.92 0 112 0 C112.08833185 51.50018495 112.16213059 103.00029792 112.20426132 154.50053705 C112.2092636 160.59313161 112.21444094 166.685726 112.21972656 172.77832031 C112.2207758 173.99114645 112.22182505 175.20397258 112.22290608 176.45355102 C112.24026833 196.04116855 112.27178276 215.62873868 112.30861118 235.21632817 C112.34613733 255.3442413 112.36826042 275.47212977 112.37635398 295.60007644 C112.38181764 308.00053566 112.39901662 320.40086087 112.43166587 332.8012788 C112.4529582 341.3272792 112.45916709 349.85321125 112.45400551 358.37923625 C112.4514664 363.28394203 112.45510476 368.18841518 112.4768219 373.09307861 C112.63083834 409.76581984 109.80796312 444.64824608 93 478 C92.69513672 478.61488281 92.39027344 479.22976563 92.07617188 479.86328125 C75.44685484 512.83458371 44.90823687 534.13645999 10.71679688 545.77734375 C-25.57984678 557.69372188 -67.92089214 558.97827454 -105 550 C-106.08909668 549.74694092 -106.08909668 549.74694092 -107.20019531 549.48876953 C-136.22406555 542.6963356 -163.00177606 529.2740585 -184.48486328 508.46386719 C-186.04816564 506.9534642 -187.63117133 505.46556661 -189.21484375 503.9765625 C-204.22967164 489.65297148 -218.73325157 470.98808387 -225 451 C-224.2157666 450.54262451 -223.4315332 450.08524902 -222.62353516 449.61401367 C-208.5266101 441.38685087 -194.45534653 433.13517742 -180.55957031 424.57128906 C-177.44850391 422.66144327 -174.3304311 420.76322213 -171.2109375 418.8671875 C-170.60860794 418.5010585 -170.00627838 418.1349295 -169.38569641 417.75770569 C-166.30799154 415.88793735 -163.22849784 414.02118983 -160.14624023 412.15893555 C-158.95810241 411.4407052 -157.77003161 410.72236395 -156.58203125 410.00390625 C-155.72003365 409.48261391 -155.72003365 409.48261391 -154.84062195 408.95079041 C-151.54052723 406.94988504 -148.26582304 404.91459909 -145.01171875 402.83984375 C-144.31522217 402.40172363 -143.61872559 401.96360352 -142.90112305 401.51220703 C-141.15623928 400.41109507 -139.4213457 399.29419351 -137.6875 398.17578125 C-135 397 -135 397 -132.875 397.34765625 C-130.09311766 399.79919007 -128.66138934 402.87270682 -127 406.125 C-118.27857718 422.34326861 -106.72140043 438.47851709 -90 447 C-88.8553125 447.58394531 -88.8553125 447.58394531 -87.6875 448.1796875 C-71.67714545 455.79572421 -50.98997654 455.17292056 -34.25390625 450.19921875 C-29.80748754 448.56050261 -25.87035922 446.7381587 -22 444 C-21.37867188 443.57074219 -20.75734375 443.14148438 -20.1171875 442.69921875 C-7.42453023 432.94620288 -3.45895916 415.31012743 -1.27590881 400.27548583 C-0.4934683 393.82251214 -0.57917089 387.33577822 -0.60127258 380.84605408 C-0.59581749 379.18970697 -0.58905951 377.53336373 -0.58113068 375.87702662 C-0.56328241 371.37756273 -0.56364042 366.87826536 -0.56726015 362.37877452 C-0.5678885 357.50715397 -0.55122214 352.63558714 -0.53674316 347.76399231 C-0.51403499 339.3408613 -0.50208555 330.91777143 -0.49761391 322.49461174 C-0.491133 310.31641122 -0.46816162 298.13828483 -0.44127061 285.96011431 C-0.39807625 266.19794799 -0.36806759 246.43578481 -0.34643555 226.67358398 C-0.32540378 207.4857428 -0.29810954 188.29792724 -0.26245117 169.11010742 C-0.26025235 167.92574948 -0.25805352 166.74139154 -0.25578807 165.52114397 C-0.24471787 159.5790842 -0.23352516 153.63702467 -0.22227156 147.69496524 C-0.1291906 98.46332566 -0.05998894 49.23169321 0 0 Z " fill="#000000" transform="translate(541,551)"/>
</svg>
