<?xml version="1.0" encoding="UTF-8"?><svg id="Layer_1" xmlns="http://www.w3.org/2000/svg" viewBox="0 0 665.02 606.44"><defs><style>.cls-1{fill:#0c3d91;}.cls-2{fill:#fff;}.cls-3{fill:#186bff;}.cls-4{fill:#679ae7;}</style></defs><path class="cls-4" d="M0,64.98C35.86,43.25,71.86,21.76,107.69,0c.15,165.51.06,331.02.05,496.53-16.57,9.53-32.79,19.69-49.22,29.48-19.5,11.75-39,23.48-58.49,35.23C-.03,395.82.03,230.4,0,64.98Z"/><path class="cls-3" d="M107.69,0c32.27.41,64.57.06,96.85.17,125.32,0,250.65.01,375.97,0,6.88.04,13.75,2.08,19.47,5.93,9.82,6.33,16.09,17.82,16.05,29.51-.03,25.36,0,50.72-.02,76.07-.02,128.25.03,256.5-.02,384.74-169.42.1-338.84-.12-508.25.11.01-165.51.1-331.02-.05-496.53ZM250.76,111.18c0,91.67-.01,183.34.01,275h58.74c.01-63-.02-126,.01-189.01,29.73,63.01,59.49,125.99,89.2,189,24.85.02,49.69.01,74.54.01,0-91.67.01-183.34-.01-275h-58.74c-.01,56.67.02,113.34-.01,170.01-27.57-56.72-55.38-113.32-82.98-170.02-26.92.02-53.84,0-80.76.01Z"/><path class="cls-2" d="M250.76,111.18c26.92-.01,53.84.01,80.76-.01,27.6,56.7,55.41,113.3,82.98,170.02.03-56.67,0-113.34.01-170.01h58.74c.02,91.66.01,183.33.01,275-24.85,0-49.69.01-74.54-.01-29.71-63.01-59.47-125.99-89.2-189-.03,63.01,0,126.01-.01,189.01h-58.74c-.02-91.66-.01-183.33-.01-275Z"/><path class="cls-1" d="M615.99,496.42c.05-128.24,0-256.49.02-384.74,16.34,0,32.67-.01,49.01.01-.01,164.91,0,329.83-.01,494.74-190.87.01-381.73.02-572.6-.01-17.67-.45-33.11-16.01-33.75-33.62-.35-15.59-.06-31.2-.14-46.79,16.43-9.79,32.65-19.95,49.22-29.48,169.41-.23,338.83-.01,508.25-.11Z"/></svg>