<?xml version="1.0" encoding="UTF-8"?>
<svg version="1.1" xmlns="http://www.w3.org/2000/svg" width="204" height="247">
<path d="M0 0 C67.32 0 134.64 0 204 0 C204 81.51 204 163.02 204 247 C136.68 247 69.36 247 0 247 C0 165.49 0 83.98 0 0 Z " fill="#FEFEFE" transform="translate(0,0)"/>
<path d="M0 0 C0.66 0 1.32 0 2 0 C4.17244497 13.38082866 6.63585563 29.45015325 -1.68209839 41.13566589 C-8.21742969 49.31800478 -16.11349344 56.29080685 -23.95672607 63.18511963 C-27.37455358 66.2209084 -30.70247179 69.35185125 -34.03515625 72.48046875 C-37.79430138 76.00893913 -41.55566249 79.52858319 -45.40307617 82.9609375 C-61.49985915 97.40311888 -73.10408955 115.7507129 -74.34375 137.78125 C-74.99457425 158.84906069 -68.53488365 178.16654114 -54.6875 194.1875 C-40.7801206 208.95825699 -22.94698416 217.9985873 -2.5625 219.203125 C17.40251104 219.46582251 35.64651608 214.01825123 51 201 C51.71671875 200.26136719 52.4334375 199.52273437 53.171875 198.76171875 C55 197 55 197 57 197 C57.39638672 196.12988281 57.39638672 196.12988281 57.80078125 195.2421875 C59.04909202 192.90821232 60.47527282 191.13892396 62.1875 189.125 C75.64488598 171.93879666 78.86124999 152.04024767 76.59765625 130.80078125 C74.72760917 116.96008274 68.16406972 105.13876673 59.6640625 94.234375 C58.15243871 92.20468296 57.09299507 90.26937941 56 88 C58.78358481 85.15862758 61.57815727 82.32831845 64.375 79.5 C65.1690625 78.68917969 65.963125 77.87835938 66.78125 77.04296875 C67.54179687 76.27597656 68.30234375 75.50898437 69.0859375 74.71875 C69.7876709 74.00654297 70.4894043 73.29433594 71.21240234 72.56054688 C73 71 73 71 75 71 C88.52849557 85.24487212 96.72207267 102.32749214 102 121 C102.19851562 121.69480469 102.39703125 122.38960938 102.6015625 123.10546875 C108.00310796 148.78928786 102.05353398 177.0608079 88 199 C84.61212016 203.89585324 80.89100172 208.49770498 77 213 C76.34386719 213.75925781 75.68773437 214.51851562 75.01171875 215.30078125 C61.66843056 229.55838469 43.61965034 238.09061655 25 243 C24.32235596 243.18618896 23.64471191 243.37237793 22.9465332 243.56420898 C-1.74010355 249.7797079 -29.32127982 243.72371499 -50.84082031 230.90332031 C-65.83049099 221.58276759 -78.63697147 208.55087421 -87 193 C-87.32436035 192.39687988 -87.6487207 191.79375977 -87.98291016 191.17236328 C-92.74366032 182.1018814 -95.76128695 172.98995609 -98 163 C-98.1750708 162.25169922 -98.3501416 161.50339844 -98.53051758 160.73242188 C-99.43502814 155.46810455 -99.26541678 150.10426539 -99.29516602 144.77490234 C-99.30657848 143.3594352 -99.32685589 141.94400732 -99.35668945 140.52880859 C-99.57818458 129.98861027 -98.25623923 121.05851612 -95 111 C-94.63056274 109.83500977 -94.63056274 109.83500977 -94.25366211 108.64648438 C-88.02188505 90.15309793 -76.06215197 76.69011569 -62.265625 63.328125 C-60.44691858 61.45924737 -58.76840725 59.56949092 -57.08032227 57.58691406 C-52.12196663 51.90623126 -46.77621708 46.61191037 -41.44921875 41.28125 C-40.34293079 40.17174287 -39.23671562 39.06216315 -38.13056946 37.95251465 C-35.82863641 35.64463533 -33.52468846 33.33878957 -31.21948242 31.03417969 C-28.2608337 28.07563348 -25.30917631 25.11021356 -22.35914898 22.14307404 C-20.0849618 19.85780699 -17.8062835 17.57706015 -15.52628517 15.29759216 C-14.43499006 14.20511512 -13.34532046 13.11101185 -12.25729942 12.01527405 C-10.74481297 10.49304946 -9.22619506 8.97722091 -7.70581055 7.46289062 C-6.84312057 6.59877563 -5.9804306 5.73466064 -5.09159851 4.84436035 C-3 3 -3 3 -1 3 C-0.67 2.01 -0.34 1.02 0 0 Z " fill="#EE4C2C" transform="translate(100,1)"/>
<path d="M0 0 C3.45211024 2.30140683 4.9826251 4.1448704 6.8125 7.875 C7.75431834 13.17669648 6.84919041 17.37232111 3.8125 21.875 C0.10172754 25.24842951 -3.83814072 25.49734823 -8.67578125 25.3671875 C-12.85271636 24.54869011 -15.57658238 22.15661205 -18.1875 18.875 C-19.43033781 15.14648658 -19.7155726 11.74753239 -19.1875 7.875 C-14.96933115 -0.40510922 -8.89434708 -3.13918132 0 0 Z " fill="#EE4B2A" transform="translate(144.1875,42.125)"/>
</svg>
