<svg version="1.1" id="Layer_1" xmlns="http://www.w3.org/2000/svg" xmlns:xlink="http://www.w3.org/1999/xlink" x="0px" y="0px"
	 width="100%" viewBox="0 0 225 225" enable-background="new 0 0 225 225" xml:space="preserve">
<path fill="#FEFFFF" opacity="1.000000" stroke="none" 
	d="
M135.000000,226.000000 
	C90.000000,226.000000 45.500004,226.000000 1.000006,226.000000 
	C1.000004,151.000000 1.000004,76.000015 1.000002,1.000016 
	C75.999992,1.000011 150.999985,1.000011 225.999969,1.000005 
	C225.999985,75.999985 225.999985,150.999969 226.000000,225.999969 
	C195.833328,226.000000 165.666672,226.000000 135.000000,226.000000 
M119.043617,203.953552 
	C119.043617,203.953552 118.981285,203.920563 119.742432,204.047653 
	C120.655823,204.212952 121.611954,204.643280 122.476219,204.503937 
	C135.977768,202.326950 149.127579,198.955536 160.956390,191.800598 
	C178.288177,181.317093 187.110626,163.130127 182.935104,144.980850 
	C179.502182,130.059341 169.255066,120.458733 156.099579,113.350388 
	C157.906311,111.650635 159.748764,109.987083 161.514053,108.245331 
	C173.840240,96.083420 175.885178,81.017586 173.614502,64.810913 
	C171.567764,50.202610 165.027039,38.247433 152.151245,30.454958 
	C143.032608,24.936325 132.893524,21.612629 122.362648,21.277987 
	C96.403839,20.453089 70.419548,20.429237 44.445229,20.105160 
	C44.168613,20.101709 43.888332,20.392204 43.128445,20.810303 
	C43.128445,22.181061 43.128441,23.807034 43.128445,25.433004 
	C43.128448,77.089920 43.125519,128.746826 43.140560,180.403748 
	C43.141090,182.228867 43.319927,184.053909 43.256786,186.487930 
	C43.283859,187.324402 43.310932,188.160873 43.096939,189.877380 
	C43.157787,192.922424 43.218636,195.967484 43.154766,199.854294 
	C43.180828,201.555161 43.206890,203.256012 43.039867,205.540924 
	C43.695446,206.053040 44.351021,206.565155 45.936340,207.202606 
	C60.618889,207.158035 75.301437,207.113480 90.422546,207.391815 
	C91.276474,207.229340 92.130402,207.066879 93.658501,206.998993 
	C94.110794,206.973480 94.563080,206.947968 95.485832,207.270767 
	C96.649094,207.030594 97.812347,206.790421 99.650620,206.675461 
	C100.104691,206.635513 100.558769,206.595551 101.880074,206.841385 
	C103.702621,206.812531 105.573395,207.037857 107.337875,206.703033 
	C111.262810,205.958267 115.134537,204.933151 119.043617,203.953552 
z"/>
<path fill="#1565C0" opacity="1.000000" stroke="none" 
	d="
M43.232948,204.956879 
	C43.206890,203.256012 43.180828,201.555161 43.455364,199.119202 
	C43.616642,195.255173 43.477322,192.126266 43.338005,188.997345 
	C43.310932,188.160873 43.283859,187.324402 43.739616,186.021637 
	C44.811821,179.830307 45.401562,174.105331 45.990494,168.380264 
	C46.921448,159.330292 47.636822,150.251633 48.836842,141.237473 
	C50.342216,129.929581 52.279560,118.679779 53.967697,107.395515 
	C56.456608,90.758560 60.070000,74.389854 68.315376,59.569389 
	C74.215263,48.964760 82.703934,40.968605 94.981476,38.393856 
	C92.416367,44.937210 89.615753,51.030529 87.513153,57.355873 
	C86.634598,59.998829 87.239243,63.134819 87.048325,66.406807 
	C86.351349,73.252968 85.770599,79.738525 85.201256,86.225082 
	C84.649681,92.509209 87.104446,97.081429 93.011566,99.929214 
	C93.408646,100.048790 93.716866,99.965439 94.480606,99.767906 
	C101.609856,99.713127 108.283577,99.772537 115.060440,100.018250 
	C115.412125,100.025948 115.660667,99.847336 116.193008,99.454880 
	C129.690933,97.150948 138.369370,81.035057 127.073738,67.102280 
	C138.483459,69.279808 149.455917,71.373810 160.349716,73.818298 
	C162.608978,74.325264 164.186661,75.322746 164.350189,72.252541 
	C166.975510,88.127281 161.066620,100.689491 149.580353,110.477585 
	C139.165665,119.352516 126.495117,123.848862 112.671860,126.025604 
	C111.523560,126.416489 110.735107,126.816383 109.486183,127.291298 
	C101.153358,127.366318 93.280998,127.366318 85.019966,127.366318 
	C85.019966,140.142731 85.019966,152.070190 84.851974,164.100311 
	C84.866920,164.431274 85.049873,164.659576 85.173462,164.853577 
	C85.114113,164.819290 85.215179,164.726669 85.149071,165.198425 
	C85.057785,168.762878 85.032600,171.855545 84.859695,175.254517 
	C71.443840,185.723129 58.175709,195.885452 44.678192,205.946533 
	C44.043518,205.549164 43.638233,205.253021 43.232948,204.956879 
z"/>
<path fill="#1976D2" opacity="1.000000" stroke="none" 
	d="
M44.907578,206.047775 
	C58.175709,195.885452 71.443840,185.723129 85.327271,175.264954 
	C93.506752,174.643265 101.100861,174.631256 108.627678,173.913498 
	C118.417168,172.980011 125.804565,164.477539 125.853569,154.856613 
	C125.860680,154.909012 125.760941,154.873871 125.957741,154.854218 
	C126.260193,154.760254 126.464149,154.633255 126.456779,154.619507 
	C126.342949,154.407104 126.201653,154.209442 126.107162,153.632004 
	C130.005554,142.056686 125.978661,133.739899 114.208687,127.782516 
	C126.635918,125.118591 138.872910,122.952812 150.041611,117.327637 
	C158.567886,124.114487 165.806564,131.743439 167.984787,142.416229 
	C169.412552,149.411865 170.794662,157.219635 169.113693,163.886154 
	C165.151962,179.597931 154.164764,189.985825 139.204987,196.055603 
	C132.503311,198.774765 125.724884,201.304733 118.981285,203.920563 
	C118.981285,203.920563 119.043617,203.953552 118.580887,203.925903 
	C112.416382,204.784042 106.714615,205.669815 101.012840,206.555588 
	C100.558769,206.595551 100.104691,206.635513 99.060135,206.427368 
	C97.318214,206.427002 96.166794,206.674728 95.015373,206.922455 
	C94.563080,206.947968 94.110794,206.973480 93.126770,206.715881 
	C91.724693,206.644821 90.854340,206.856857 89.983986,207.068909 
	C75.301437,207.113480 60.618889,207.158035 45.455631,206.881714 
	C44.952473,206.389801 44.930027,206.218781 44.907578,206.047775 
z"/>
<path fill="#2189E5" opacity="1.000000" stroke="none" 
	d="
M149.988083,116.987305 
	C138.872910,122.952812 126.635918,125.118591 113.951180,127.804337 
	C113.297729,128.043427 113.149101,127.955849 112.996811,127.562363 
	C113.005989,126.849182 113.018845,126.441895 113.031700,126.034615 
	C126.495117,123.848862 139.165665,119.352516 149.580353,110.477585 
	C161.066620,100.689491 166.975510,88.127281 164.337112,71.850098 
	C162.430588,66.671783 161.420441,61.860836 159.085175,57.814701 
	C146.482773,35.979443 117.293365,29.420790 95.027756,38.037487 
	C82.703934,40.968605 74.215263,48.964760 68.315376,59.569389 
	C60.070000,74.389854 56.456608,90.758560 53.967697,107.395515 
	C52.279560,118.679779 50.342216,129.929581 48.836842,141.237473 
	C47.636822,150.251633 46.921448,159.330292 45.990494,168.380264 
	C45.401562,174.105331 44.811821,179.830307 43.819054,185.717163 
	C43.319927,184.053909 43.141090,182.228867 43.140560,180.403748 
	C43.125519,128.746826 43.128448,77.089920 43.128445,25.433004 
	C43.128441,23.807034 43.128445,22.181061 43.128445,20.810303 
	C43.888332,20.392204 44.168613,20.101709 44.445229,20.105160 
	C70.419548,20.429237 96.403839,20.453089 122.362648,21.277987 
	C132.893524,21.612629 143.032608,24.936325 152.151245,30.454958 
	C165.027039,38.247433 171.567764,50.202610 173.614502,64.810913 
	C175.885178,81.017586 173.840240,96.083420 161.514053,108.245331 
	C159.748764,109.987083 157.906311,111.650635 155.622772,113.726723 
	C153.426651,115.064476 151.707367,116.025894 149.988083,116.987305 
z"/>
<path fill="#1767C1" opacity="1.000000" stroke="none" 
	d="
M150.041611,117.327629 
	C151.707367,116.025894 153.426651,115.064476 155.474945,114.038788 
	C169.255066,120.458733 179.502182,130.059341 182.935104,144.980850 
	C187.110626,163.130127 178.288177,181.317093 160.956390,191.800598 
	C149.127579,198.955536 135.977768,202.326950 122.476219,204.503937 
	C121.611954,204.643280 120.655823,204.212952 119.361862,203.984100 
	C125.724884,201.304733 132.503311,198.774765 139.204987,196.055603 
	C154.164764,189.985825 165.151962,179.597931 169.113693,163.886154 
	C170.794662,157.219635 169.412552,149.411865 167.984787,142.416229 
	C165.806564,131.743439 158.567886,124.114487 150.041611,117.327629 
z"/>
<path fill="#538ED2" opacity="1.000000" stroke="none" 
	d="
M101.446457,206.698486 
	C106.714615,205.669815 112.416382,204.784042 118.573051,203.960297 
	C115.134537,204.933151 111.262810,205.958267 107.337875,206.703033 
	C105.573395,207.037857 103.702621,206.812531 101.446457,206.698486 
z"/>
<path fill="#538ED2" opacity="1.000000" stroke="none" 
	d="
M43.217468,189.437363 
	C43.477322,192.126266 43.616642,195.255173 43.517723,198.698303 
	C43.218636,195.967484 43.157787,192.922424 43.217468,189.437363 
z"/>
<path fill="#538ED2" opacity="1.000000" stroke="none" 
	d="
M90.203262,207.230347 
	C90.854340,206.856857 91.724693,206.644821 92.789688,206.668579 
	C92.130402,207.066879 91.276474,207.229340 90.203262,207.230347 
z"/>
<path fill="#538ED2" opacity="1.000000" stroke="none" 
	d="
M95.250603,207.096619 
	C96.166794,206.674728 97.318214,206.427002 98.722626,206.364777 
	C97.812347,206.790421 96.649094,207.030594 95.250603,207.096619 
z"/>
<path fill="#538ED2" opacity="1.000000" stroke="none" 
	d="
M44.678192,205.946533 
	C44.930027,206.218781 44.952473,206.389801 44.990761,206.819031 
	C44.351021,206.565155 43.695446,206.053040 43.136406,205.248901 
	C43.638233,205.253021 44.043518,205.549164 44.678192,205.946533 
z"/>
<path fill="#255AAB" opacity="1.000000" stroke="none" 
	d="
M94.981476,38.393856 
	C117.293365,29.420790 146.482773,35.979443 159.085175,57.814701 
	C161.420441,61.860836 162.430588,66.671783 164.065399,71.532181 
	C164.186661,75.322746 162.608978,74.325264 160.349716,73.818298 
	C149.455917,71.373810 138.483459,69.279808 126.761894,66.991684 
	C121.748108,63.271427 116.808472,61.940063 111.272018,62.146187 
	C106.471016,62.324928 101.593575,61.706467 96.872330,62.345173 
	C93.532272,62.797024 90.396492,64.758865 87.169525,66.046638 
	C87.239243,63.134819 86.634598,59.998829 87.513153,57.355873 
	C89.615753,51.030529 92.416367,44.937210 94.981476,38.393856 
z"/>
<path fill="#FAFBFE" opacity="1.000000" stroke="none" 
	d="
M87.048325,66.406807 
	C90.396492,64.758865 93.532272,62.797024 96.872330,62.345173 
	C101.593575,61.706467 106.471016,62.324928 111.272018,62.146187 
	C116.808472,61.940063 121.748108,63.271427 126.296722,67.032501 
	C138.369370,81.035057 129.690933,97.150948 115.942657,99.423386 
	C115.258095,99.681129 115.107697,99.756538 114.957291,99.831940 
	C108.283577,99.772537 101.609856,99.713127 94.212097,99.679100 
	C93.299599,99.711754 93.111153,99.719032 92.922707,99.726303 
	C87.104446,97.081429 84.649681,92.509209 85.201256,86.225082 
	C85.770599,79.738525 86.351349,73.252968 87.048325,66.406807 
z"/>
<path fill="#FAFBFD" opacity="1.000000" stroke="none" 
	d="
M113.000481,127.868271 
	C113.149101,127.955849 113.297729,128.043427 113.703873,128.109192 
	C125.978661,133.739899 130.005554,142.056686 125.994774,153.835709 
	C125.841965,154.415756 125.760941,154.873871 125.760941,154.873871 
	C125.760941,154.873871 125.860680,154.909012 125.560684,155.031433 
	C122.017250,160.878525 117.252892,164.615128 110.592415,164.825912 
	C102.142845,165.093307 93.675095,164.786102 85.215179,164.726669 
	C85.215179,164.726669 85.114113,164.819290 85.171402,164.618896 
	C85.228691,164.418503 85.019966,163.997650 85.019966,163.997650 
	C85.019966,152.070190 85.019966,140.142731 85.019966,127.366318 
	C93.280998,127.366318 101.153358,127.366318 109.765991,127.445953 
	C111.337662,127.639816 112.169075,127.754044 113.000481,127.868271 
z"/>
<path fill="#285DAD" opacity="1.000000" stroke="none" 
	d="
M85.149071,165.198425 
	C93.675095,164.786102 102.142845,165.093307 110.592415,164.825912 
	C117.252892,164.615128 122.017250,160.878525 125.553574,154.979034 
	C125.804565,164.477539 118.417168,172.980011 108.627678,173.913498 
	C101.100861,174.631256 93.506752,174.643265 85.474991,174.958679 
	C85.032600,171.855545 85.057785,168.762878 85.149071,165.198425 
z"/>
<path fill="#1976D2" opacity="1.000000" stroke="none" 
	d="
M112.996811,127.562363 
	C112.169075,127.754044 111.337662,127.639816 110.226456,127.370926 
	C110.735107,126.816383 111.523560,126.416489 112.671860,126.025604 
	C113.018845,126.441895 113.005989,126.849182 112.996811,127.562363 
z"/>
<path fill="#015EBE" opacity="1.000000" stroke="none" 
	d="
M93.011566,99.929214 
	C93.111153,99.719032 93.299599,99.711754 93.756561,99.793282 
	C93.716866,99.965439 93.408646,100.048790 93.011566,99.929214 
z"/>
<path fill="#015EBE" opacity="1.000000" stroke="none" 
	d="
M115.060440,100.018250 
	C115.107697,99.756538 115.258095,99.681129 115.658844,99.637222 
	C115.660667,99.847336 115.412125,100.025948 115.060440,100.018250 
z"/>
<path fill="#005BBD" opacity="1.000000" stroke="none" 
	d="
M84.851974,164.100311 
	C85.019966,163.997650 85.228691,164.418503 85.230759,164.653183 
	C85.049873,164.659576 84.866920,164.431274 84.851974,164.100311 
z"/>
<path fill="#285DAD" opacity="1.000000" stroke="none" 
	d="
M125.957741,154.854218 
	C125.760941,154.873871 125.841965,154.415756 125.954346,154.212051 
	C126.201653,154.209442 126.342949,154.407104 126.456779,154.619507 
	C126.464149,154.633255 126.260193,154.760254 125.957741,154.854218 
z"/>
</svg>